<svg xmlns="http://www.w3.org/2000/svg" viewBox="0 0 420 120" fill="currentColor">
  <!-- f -->
  <path d="M10 30 Q10 10 30 10 L50 10 L50 28 L32 28 Q28 28 28 32 L28 48 L50 48 L50 66 L28 66 L28 110 L10 110 Z"/>
  <!-- a -->
  <path d="M60 50 Q60 34 76 34 L110 34 Q126 34 126 50 L126 110 L108 110 L108 98 Q104 110 88 110 Q60 110 60 88 L60 84 Q60 68 88 68 L108 68 L108 50 Q108 50 93 50 Q76 50 78 66 L60 66 Z M78 84 Q78 92 88 92 Q108 92 108 86 L108 84 Z"/>
  <!-- r -->
  <path d="M138 34 L156 34 L156 48 Q160 34 180 34 L180 52 Q156 52 156 70 L156 110 L138 110 Z"/>
  <!-- d -->
  <path d="M260 10 L260 110 L242 110 L242 96 Q238 110 220 110 Q192 110 192 78 L192 66 Q192 34 220 34 Q238 34 242 48 L242 10 Z M210 66 L210 78 Q210 92 222 92 Q242 92 242 78 L242 66 Q242 52 222 52 Q210 52 210 66 Z"/>
  <!-- o -->
  <path d="M272 66 L272 78 Q272 110 304 110 Q336 110 336 78 L336 66 Q336 34 304 34 Q272 34 272 66 Z M290 66 Q290 52 304 52 Q318 52 318 66 L318 78 Q318 92 304 92 Q290 92 290 78 Z"/>
  <!-- ® -->
  <text x="340" y="30" font-size="22" font-family="serif" fill="currentColor">®</text>
</svg>
